<?xml version="1.0" encoding="iso-8859-1"?>
<!-- Generator: Adobe Illustrator 18.1.1, SVG Export Plug-In . SVG Version: 6.00 Build 0)  -->
<svg version="1.1" id="Capa_1" xmlns="http://www.w3.org/2000/svg" xmlns:xlink="http://www.w3.org/1999/xlink" x="0px" y="0px"
	 viewBox="0 0 477.651 477.651" style="enable-background:new 0 0 477.651 477.651;" xml:space="preserve">
<g>
	<g>
		<g>
			<path style="fill:#010002;" d="M238.874,126.928c-59.022,0-107.037,48.015-107.037,107.021
				c0,59.013,48.015,107.037,107.037,107.037c59.03,0,107.037-48.024,107.037-107.037
				C345.911,174.951,297.904,126.928,238.874,126.928z"/>
		</g>
		<g>
			<path style="fill:#010002;" d="M76.734,233.949c0-3.999-3.219-7.234-7.186-7.234H7.153c-3.95,0-7.153,3.235-7.153,7.234
				c0,3.967,3.211,7.202,7.153,7.202H69.54C73.507,241.159,76.734,237.923,76.734,233.949z"/>
		</g>
		<g>
			<path style="fill:#010002;" d="M120.36,111.955c2.674,2.674,7.527,2.626,10.185,0c2.78-2.796,2.796-7.397,0-10.193L90.625,61.875
				c-1.39-1.39-3.178-2.154-5.08-2.154c-1.902,0-3.723,0.764-5.08,2.138c-2.812,2.78-2.78,7.348,0,10.161L120.36,111.955z"/>
		</g>
		<g>
			<path style="fill:#010002;" d="M129.309,353.78c-1.943,0-3.739,0.764-5.113,2.146l-39.919,39.903
				c-2.821,2.812-2.821,7.43,0,10.258c3.495,3.438,6.698,3.471,10.266-0.065l39.887-39.903c2.78-2.796,2.78-7.397-0.033-10.21
				C133.049,354.536,131.22,353.78,129.309,353.78z"/>
		</g>
		<g>
			<path style="fill:#010002;" d="M470.482,226.714h-62.379c-3.959,0-7.186,3.235-7.186,7.234c0,3.967,3.219,7.202,7.186,7.202
				h62.379c3.967,0,7.169-3.235,7.169-7.202C477.651,229.957,474.449,226.714,470.482,226.714z"/>
		</g>
		<g>
			<path style="fill:#010002;" d="M357.34,111.906l39.871-39.903c2.788-2.796,2.804-7.364,0.016-10.12
				c-1.39-1.406-3.211-2.17-5.113-2.17c-1.91,0-3.731,0.764-5.089,2.138L347.09,101.77c-2.804,2.78-2.788,7.381,0.033,10.193
				C349.74,114.564,354.568,114.662,357.34,111.906z"/>
		</g>
		<g>
			<path style="fill:#010002;" d="M353.447,355.934c-1.382-1.398-3.178-2.162-5.105-2.162c-1.902,0-3.707,0.764-5.08,2.146
				c-2.853,2.869-2.853,7.34,0,10.193l39.887,39.968c2.276,2.252,5.893,4.259,10.299-0.081c2.731-2.747,2.731-7.364-0.081-10.177
				L353.447,355.934z"/>
		</g>
		<g>
			<path style="fill:#010002;" d="M234.469,401.795c-3.853,0.033-7.096,3.251-7.096,7.21v56.542c0,1.91,0.748,3.69,2.073,4.999
				c1.39,1.414,3.178,2.154,5.145,2.203c3.967-0.065,7.202-3.3,7.226-7.267l-0.016-56.477
				C241.801,405.047,238.517,401.828,234.469,401.795z"/>
		</g>
		<g>
			<path style="fill:#010002;" d="M234.599,75.807c3.967-0.065,7.202-3.3,7.226-7.275l-0.016-56.412c0-3.95-3.284-7.169-7.332-7.218
				c-3.853,0.049-7.096,3.268-7.096,7.218v56.485c0,2.439,1.138,4.072,2.073,4.999C230.843,75.019,232.624,75.758,234.599,75.807z"
				/>
		</g>
	</g>
</g>
<g>
</g>
<g>
</g>
<g>
</g>
<g>
</g>
<g>
</g>
<g>
</g>
<g>
</g>
<g>
</g>
<g>
</g>
<g>
</g>
<g>
</g>
<g>
</g>
<g>
</g>
<g>
</g>
<g>
</g>
</svg>
